<?xml version="1.0" standalone="no"?>
<!DOCTYPE svg PUBLIC "-//W3C//DTD SVG 20010904//EN"
 "http://www.w3.org/TR/2001/REC-SVG-20010904/DTD/svg10.dtd">
<svg version="1.0" xmlns="http://www.w3.org/2000/svg"
 width="600.000000pt" height="600.000000pt" viewBox="0 0 600.000000 600.000000"
 preserveAspectRatio="xMidYMid meet">
<metadata>
Created by potrace 1.11, written by Peter Selinger 2001-2013
</metadata>
<g transform="translate(0.000000,600.000000) scale(0.100000,-0.100000)"
fill="#000000" stroke="none">
<path d="M0 3000 l0 -3000 3000 0 3000 0 0 3000 0 3000 -3000 0 -3000 0 0
-3000z m3205 1492 c379 -102 637 -400 685 -791 6 -46 9 -86 6 -88 -3 -3 -75
35 -160 83 -150 86 -155 90 -161 126 -18 106 -136 177 -243 148 -84 -22 -145
-102 -145 -190 l0 -36 -216 -125 -216 -125 -46 29 c-36 22 -59 29 -101 29 -54
1 -121 -25 -147 -55 -10 -13 -37 0 -189 85 -97 55 -183 106 -190 112 -11 10
-10 27 3 92 76 368 364 648 738 720 96 18 289 11 382 -14z m590 -898 c104 -60
105 -62 81 -180 -69 -333 -330 -606 -666 -696 -71 -19 -109 -23 -235 -22 -133
1 -160 4 -239 28 -380 115 -640 433 -663 809 l-6 97 172 -97 172 -98 2 -77 c2
-69 5 -80 33 -115 60 -76 157 -102 239 -64 81 36 122 114 112 210 l-6 57 206
120 207 120 41 -41 c96 -96 248 -73 311 48 l15 28 67 -37 c37 -21 108 -61 157
-90z m73 -1677 c12 -13 19 -27 15 -30 -3 -4 1 -7 10 -7 8 0 25 13 37 30 18 26
24 28 45 18 20 -9 22 -14 14 -29 -8 -16 -6 -19 16 -19 22 0 26 -4 23 -22 -3
-20 -10 -23 -50 -26 l-48 -3 0 -40 c0 -28 4 -39 15 -39 10 0 15 11 15 35 0 32
2 35 30 35 l30 0 0 -65 0 -65 -30 0 c-16 0 -30 5 -30 10 0 6 -11 10 -25 10
-14 0 -25 -4 -25 -9 0 -5 -12 -23 -26 -40 l-25 -30 89 -3 c88 -3 89 -3 81 -25
-8 -22 -13 -23 -124 -23 -82 0 -124 4 -144 15 -26 13 -30 13 -46 -5 -24 -26
-32 -25 -39 6 -5 17 -2 32 9 43 21 24 21 111 0 111 -9 0 -15 9 -15 25 0 23 4
25 45 25 l45 0 0 -75 c0 -72 1 -76 26 -85 38 -15 50 -12 31 7 -16 16 -15 19
11 40 l27 22 -32 1 -33 0 0 55 c0 52 1 55 25 55 22 0 25 -4 25 -35 0 -24 5
-35 15 -35 11 0 15 11 15 40 l0 40 -45 0 c-31 0 -47 5 -51 15 -5 12 -9 12 -28
-1 -22 -14 -24 -12 -49 24 -24 37 -24 39 -6 50 27 17 33 15 51 -16 14 -24 22
-28 47 -24 25 3 29 7 22 20 -6 11 -4 20 7 29 23 17 25 16 50 -10z m358 17 c15
-4 20 -11 17 -25 -5 -18 1 -19 76 -19 l81 0 0 -140 c0 -169 -6 -180 -95 -180
-30 0 -55 3 -55 8 0 4 -3 17 -6 29 -6 20 -2 22 42 25 l49 3 3 98 3 97 -111 0
-110 0 0 -130 0 -130 -30 0 -30 0 0 160 0 159 58 3 c50 3 57 6 60 26 4 23 12
26 48 16z m419 -14 c5 -17 15 -20 71 -20 l64 0 0 -45 c0 -42 -2 -45 -26 -45
-17 0 -28 6 -31 20 -5 18 -13 20 -82 19 -49 -1 -67 -4 -51 -8 18 -5 24 -14 23
-29 -3 -21 1 -22 92 -22 95 0 95 0 95 -25 0 -22 -4 -25 -35 -25 -30 0 -37 -5
-55 -41 -12 -23 -20 -42 -18 -43 2 -1 24 -10 50 -20 42 -15 47 -20 38 -36 -17
-31 -27 -32 -88 -6 l-59 25 -49 -18 c-27 -10 -67 -22 -90 -25 -36 -6 -43 -4
-57 18 -18 27 -23 25 76 42 46 8 47 16 2 33 -40 14 -41 18 -19 49 15 22 15 22
-30 22 -42 0 -46 2 -46 25 0 24 3 25 58 25 53 0 60 2 70 25 16 35 16 35 -18
35 -20 0 -30 -5 -30 -15 0 -10 -10 -15 -30 -15 -28 0 -30 2 -30 40 l0 40 70 0
c56 0 68 3 64 14 -5 13 9 20 53 25 6 0 15 -8 18 -19z m385 7 c0 -18 57 -71
107 -99 41 -23 41 -24 24 -47 -16 -21 -21 -22 -41 -11 -18 10 -25 10 -28 1 -2
-6 -19 -11 -38 -11 -27 0 -34 -4 -34 -20 0 -18 7 -20 55 -20 52 0 55 -1 55
-25 0 -24 -3 -25 -55 -25 -48 0 -55 -2 -55 -20 0 -18 7 -20 70 -20 68 0 70 -1
70 -25 l0 -25 -170 0 -170 0 0 25 c0 24 2 25 70 25 63 0 70 2 70 20 0 18 -7
20 -55 20 -52 0 -55 1 -55 25 0 24 3 25 55 25 48 0 55 2 55 20 0 16 -7 20 -34
20 -19 0 -36 5 -38 11 -3 8 -10 8 -26 -2 -19 -12 -24 -11 -42 7 l-21 20 49 32
c27 18 65 49 83 71 26 30 42 40 67 40 20 1 32 -4 32 -12z m-3450 -45 c0 -13
-8 -18 -27 -17 -22 0 -29 -5 -31 -22 -3 -19 1 -23 22 -23 16 0 26 -6 26 -15 0
-9 -9 -15 -25 -15 -25 0 -25 -1 -25 -85 0 -84 0 -85 -25 -85 -25 0 -25 1 -25
85 0 50 -4 85 -10 85 -5 0 -10 7 -10 15 0 8 4 15 9 15 5 0 15 15 21 34 12 39
21 44 68 45 24 1 32 -3 32 -17z m1370 -99 c0 -65 3 -128 6 -140 5 -18 2 -23
-14 -23 -12 0 -24 4 -27 10 -3 6 -19 3 -38 -6 -30 -14 -37 -14 -70 0 -98 40
-76 196 28 196 17 0 41 -7 53 -16 22 -15 22 -15 22 40 0 49 2 56 20 56 19 0
20 -7 20 -117z m448 95 c-5 -34 -38 -37 -38 -4 0 20 5 26 21 26 15 0 20 -5 17
-22z m232 -87 c0 -60 3 -123 6 -140 6 -27 4 -31 -15 -31 -11 0 -21 4 -21 9 0
6 -16 3 -35 -5 -71 -29 -130 15 -130 98 0 42 4 53 28 74 30 25 75 31 108 14
18 -10 19 -7 19 40 0 43 3 50 20 50 19 0 20 -7 20 -109z m-1191 4 c21 -49 45
-109 54 -132 l17 -43 -23 0 c-19 0 -27 9 -37 40 l-13 40 -54 0 c-53 0 -53 0
-69 -40 -12 -30 -22 -40 -39 -40 -22 0 -21 4 33 135 70 168 77 171 131 40z
m-1468 15 c31 -17 23 -32 -13 -24 -44 10 -70 8 -79 -8 -11 -18 7 -36 44 -43
94 -20 105 -97 16 -118 -28 -7 -95 8 -104 23 -13 22 7 28 42 14 27 -12 42 -13
60 -5 39 18 27 38 -34 58 -51 16 -58 21 -61 46 -5 41 22 67 70 67 22 0 48 -5
59 -10z m196 -5 c22 -16 28 -35 37 -132 4 -47 3 -53 -14 -53 -10 0 -21 4 -25
9 -3 6 -20 4 -41 -5 -56 -24 -104 2 -104 56 0 38 32 60 87 60 37 0 43 3 43 20
0 29 -37 41 -77 24 -23 -9 -35 -10 -39 -2 -21 33 92 52 133 23z m113 -1 c0
-14 2 -14 22 0 12 9 37 16 55 16 48 0 63 -29 63 -122 0 -71 -2 -78 -20 -78
-18 0 -20 7 -20 73 0 97 -26 123 -77 75 -19 -18 -23 -32 -23 -85 0 -56 -2 -63
-20 -63 -19 0 -20 7 -20 100 0 93 1 100 20 100 11 0 20 -7 20 -16z m471 -13
c17 -17 29 -40 29 -55 0 -26 -1 -26 -81 -26 -69 0 -80 -2 -77 -16 2 -9 15 -26
29 -36 25 -19 28 -19 62 -3 48 22 67 16 37 -13 -32 -30 -73 -36 -113 -17 -101
48 -68 195 44 195 31 0 47 -7 70 -29z m99 13 c0 -14 2 -14 22 0 29 20 82 20
102 0 12 -12 16 -36 16 -100 0 -77 -2 -84 -20 -84 -18 0 -20 7 -20 73 0 99
-25 123 -75 72 -21 -20 -25 -34 -25 -85 0 -53 -2 -60 -20 -60 -19 0 -20 7 -20
100 0 93 1 100 20 100 11 0 20 -7 20 -16z m321 6 c13 -7 19 -7 19 0 0 5 9 10
20 10 19 0 20 -7 20 -104 0 -58 -4 -116 -10 -131 -20 -52 -113 -68 -168 -29
-18 13 -21 19 -11 30 10 12 14 13 28 0 47 -41 120 -19 121 37 0 14 -4 16 -19
7 -36 -19 -86 -12 -115 16 -21 21 -26 36 -26 74 0 38 5 53 26 74 29 28 79 35
115 16z m399 -6 c0 -14 2 -14 22 0 29 20 82 20 102 0 12 -12 16 -36 16 -100 0
-77 -2 -84 -20 -84 -18 0 -20 7 -20 73 0 99 -25 123 -75 72 -21 -20 -25 -34
-25 -85 0 -53 -2 -60 -20 -60 -19 0 -20 7 -20 100 0 93 1 100 20 100 11 0 20
-7 20 -16z m470 6 c0 -7 6 -7 19 0 11 5 27 10 35 10 28 0 17 -26 -16 -41 -32
-14 -33 -15 -36 -86 -3 -65 -5 -73 -22 -73 -19 0 -20 7 -20 100 0 93 1 100 20
100 11 0 20 -5 20 -10z m251 -19 c80 -80 -13 -214 -116 -166 -100 48 -65 195
46 195 31 0 47 -7 70 -29z m109 -71 c0 -93 -1 -100 -20 -100 -19 0 -20 7 -20
100 0 93 1 100 20 100 19 0 20 -7 20 -100z m918 13 l3 -73 -61 0 c-33 0 -60
-4 -60 -10 0 -5 -13 -10 -30 -10 l-30 0 0 78 c0 43 3 82 7 86 4 4 43 5 88 4
l80 -3 3 -72z"/>
<path d="M4566 1724 c-4 -9 -5 -18 -4 -18 9 -6 60 -26 63 -26 3 0 11 14 20 30
l16 30 -45 0 c-31 0 -46 -5 -50 -16z"/>
<path d="M4955 1840 l-29 -30 64 0 64 0 -29 30 c-16 17 -32 30 -35 30 -3 0
-19 -13 -35 -30z"/>
<path d="M2807 1772 c-23 -25 -22 -85 1 -105 43 -39 102 -6 102 55 0 56 -68
89 -103 50z"/>
<path d="M3491 1764 c-24 -31 -26 -43 -9 -79 14 -30 50 -42 84 -26 20 9 24 18
24 54 0 74 -58 103 -99 51z"/>
<path d="M2361 1787 c-11 -27 -21 -51 -21 -53 0 -2 18 -4 40 -4 45 0 47 6 20
65 l-18 40 -21 -48z"/>
<path d="M1076 1707 c-21 -15 -18 -45 4 -59 25 -16 70 7 70 36 0 35 -40 48
-74 23z"/>
<path d="M1637 1772 c-30 -33 -21 -42 43 -42 45 0 60 3 60 14 0 42 -73 62
-103 28z"/>
<path d="M2086 1768 c-22 -30 -20 -81 2 -101 42 -39 102 -8 102 51 0 62 -72
96 -104 50z"/>
<path d="M3176 1768 c-22 -30 -20 -81 2 -101 43 -39 102 -6 102 55 0 59 -73
91 -104 46z"/>
<path d="M4200 1730 c0 -16 7 -20 30 -20 23 0 30 4 30 20 0 16 -7 20 -30 20
-23 0 -30 -4 -30 -20z"/>
</g>
</svg>
